<svg xmlns="http://www.w3.org/2000/svg" width="1920" height="1080" viewBox="0 0 1920 1080" preserveAspectRatio="xMidYMid slice">
  <rect width="1920" height="1080" fill="transparent"/>
  <g fill="#0f172a" fill-opacity="0.66">
    <path d="M0 830 C190 790, 360 790, 570 835 C780 880, 980 885, 1210 850 C1450 815, 1660 810, 1920 840 L1920 1080 L0 1080 Z"/>
  </g>
  <g fill="#cbd5e1" fill-opacity="0.17">
    <rect x="210" y="450" width="86" height="420" rx="6"/>
    <rect x="500" y="410" width="82" height="460" rx="6"/>
    <rect x="860" y="460" width="84" height="410" rx="6"/>
    <rect x="1260" y="430" width="86" height="440" rx="6"/>
    <rect x="1590" y="470" width="84" height="400" rx="6"/>
  </g>
  <g fill="#93c5fd" fill-opacity="0.16">
    <rect x="170" y="430" width="1540" height="22" rx="7"/>
    <rect x="150" y="870" width="1580" height="30" rx="9"/>
  </g>
</svg>
